<?xml version="1.0" encoding="UTF-8" standalone="no"?>
<!-- Created with Inkscape (http://www.inkscape.org/) -->

<svg
   version="1.1"
   id="svg105"
   width="480"
   height="481.33334"
   viewBox="0 0 480 481.33334"
   sodipodi:docname="logo.svg"
   inkscape:version="1.2.2 (b0a84865, 2022-12-01)"
   xmlns:inkscape="http://www.inkscape.org/namespaces/inkscape"
   xmlns:sodipodi="http://sodipodi.sourceforge.net/DTD/sodipodi-0.dtd"
   xmlns="http://www.w3.org/2000/svg"
   xmlns:svg="http://www.w3.org/2000/svg">
  <defs
     id="defs109" />
  <sodipodi:namedview
     id="namedview107"
     pagecolor="#ffffff"
     bordercolor="#000000"
     borderopacity="0.25"
     inkscape:showpageshadow="2"
     inkscape:pageopacity="0.0"
     inkscape:pagecheckerboard="0"
     inkscape:deskcolor="#d1d1d1"
     showgrid="false"
     inkscape:zoom="0.4903047"
     inkscape:cx="-74.443504"
     inkscape:cy="250.86441"
     inkscape:window-width="1720"
     inkscape:window-height="1062"
     inkscape:window-x="0"
     inkscape:window-y="40"
     inkscape:window-maximized="0"
     inkscape:current-layer="g111" />
  <g
     inkscape:groupmode="layer"
     inkscape:label="Image"
     id="g111">
    <path
       style="fill:#000000;stroke-width:1.33333"
       d="m 60.829857,469.36337 c -5.488512,-0.89249 -10.540502,-5.01152 -12.781084,-10.42076 -1.087066,-2.62441 -1.372525,-41.5172 -1.038816,-141.53496 l 0.460158,-137.91612 3.726068,-15.33334 C 99.962828,-36.523908 387.09531,-32.784938 428.65469,169.07335 L 432,185.32185 V 322.69558 460.0693 l -4.71111,4.71112 c -2.59112,2.59111 -5.74112,4.73655 -7,4.76764 -22.33556,0.55166 -355.985015,0.38023 -359.459033,-0.18469 z M 401.33333,316.92134 c 0,-126.78267 -0.21044,-131.98891 -6.16573,-152.53937 C 350.59116,10.557962 129.55882,10.399072 83.8813,164.15819 c -6.619823,22.28358 -7.762865,71.17619 -5.525149,236.33334 l 0.501313,37 H 240.0954 401.33333 Z m -193.66061,35.33141 c -10.22243,-1.42572 -10.21173,-1.19861 -1.30188,-27.64782 11.18948,-33.21639 47.81412,-138.62628 50.30379,-144.78007 0.96786,-2.39231 16.11766,-3.48055 21.21632,-1.52401 4.50334,1.72809 5.42542,-1.4164 -27.91338,95.19068 -11.51473,33.36666 -22.10728,64.4456 -23.539,69.06428 -2.54721,8.21721 -5.69877,11.33941 -10.8587,10.75757 -0.86892,-0.098 -4.42715,-0.57527 -7.90715,-1.06063 z m -62.00605,-55.31621 c -36.56461,-36.88365 -36.6394,-28.982 0.62826,-66.3786 34.25456,-34.37307 33.1212,-33.74027 42.24818,-23.58888 8.0436,8.94643 9.3344,6.45879 -17.1937,33.13583 l -23.31726,23.44817 22.6506,22.62119 c 25.7633,25.72988 24.98704,24.05329 15.52014,33.52017 -9.57217,9.57219 -7.12233,10.94757 -40.53622,-22.75788 z m 147.02102,24.43201 c -9.95664,-9.1777 -10.44781,-8.0853 15.16719,-33.73173 27.33399,-27.36749 27.22683,-21.09999 0.81179,-47.47863 -12.1,-12.08333 -22,-22.76169 -22,-23.72969 0,-2.75213 8.24892,-12.32983 12.52325,-14.54055 l 3.85657,-1.99465 29.8101,29.788 c 37.82073,37.79272 37.81192,29.91563 0.0756,67.51611 -32.58514,32.46782 -31.77288,31.97997 -40.24447,24.17114 z"
       id="path223" />
  </g>
</svg>
