<svg xmlns="http://www.w3.org/2000/svg" xmlns:xlink="http://www.w3.org/1999/xlink" id="Layer_1" x="0" y="0" version="1.1" viewBox="0 0 256 256" style="enable-background:new 0 0 256 256" xml:space="preserve"><style type="text/css">.st0{fill:#858686}</style><g><path d="M151.423,168.465c-7.459-9.833-15.99-19.744-25.387-29.463l-7.667,7.406 c9.094,9.416,17.355,19.005,24.553,28.505L151.423,168.465z" class="st0"/><path d="M116.88,129.857c-9.719-9.396-19.636-17.932-29.48-25.38l-6.438,8.5c9.5,7.193,19.095,15.453,28.501,24.546 L116.88,129.857z" class="st0"/><path d="M159.122,179.189l-8.834,5.979c3.104,4.599,5.844,9.026,8.136,13.166c9.146,16.51,10.323,26.822,7.427,29.718 c-2.886,2.906-13.219,1.719-29.72-7.422c-17.261-9.557-37.272-25.328-56.357-44.411c-19.095-19.093-34.866-39.103-44.408-56.353 c-9.146-16.51-10.323-26.822-7.427-29.718c2.906-2.885,13.219-1.714,29.72,7.422c4.219,2.339,8.646,5.078,13.167,8.14l5.979-8.833 c-4.771-3.24-9.48-6.146-13.98-8.64c-20.251-11.203-34.908-13.156-42.429-5.63c-7.521,7.521-5.573,22.192,5.636,42.426 c2.025,3.66,4.485,7.497,7.008,11.351L4.5,164.924c-6,6-6,15.765,0,21.776l64.795,64.79c2.906,2.906,6.771,4.51,10.886,4.51 c4.115,0,7.98-1.599,10.896-4.51l28.535-28.538c3.854,2.525,7.691,4.985,11.352,7.012c12.167,6.734,22.313,10.125,30.116,10.125 c5.177,0,9.313-1.495,12.313-4.495c7.521-7.521,5.573-22.192-5.636-42.426C165.32,188.757,162.413,184.054,159.122,179.189z M83.535,243.943c-1.792,1.781-4.896,1.807-6.698,0.005l-64.795-64.79c-1.844-1.844-1.844-4.849,0-6.693l27.198-27.197 c9.137,12.614,20.242,25.748,32.992,38.493c12.745,12.741,25.879,23.847,38.497,32.988L83.535,243.943z" class="st0"/><path d="M238.832,103.551c2.591-2.844,4.127-6.435,4.127-10.308c0-4.115-1.615-7.984-4.521-10.89l-10.291-10.291 l4.291-4.292c1-1,1.563-2.359,1.563-3.771c0-1.417-0.563-2.771-1.563-3.771l-7.886-7.88c1.875-5.807,0.438-12.37-4.052-16.849 c-4.469-4.474-11.011-5.927-16.844-4.047l-7.886-7.885c-2-2-5.542-2-7.542,0l-4.285,4.286l-10.289-10.296 c-5.849-5.818-15.169-5.876-21.201-0.38C135.972,6.347,110.214-7.208,98.484,4.526c-16.199,16.192,13.824,63.145,51.836,101.159 c30.793,30.781,67.44,56.317,88.858,56.317c5.031,0,9.219-1.411,12.303-4.489C263.201,145.797,249.659,120.035,238.832,103.551z M191.998,34.879l6.761,6.76c1.802,1.802,4.625,2.068,6.74,0.661c2.323-1.568,5.479-1.25,7.459,0.745 c1.99,1.99,2.302,5.125,0.74,7.463c-1.406,2.115-1.135,4.937,0.667,6.734l6.761,6.755l-7.5,7.505l-29.126-29.119L191.998,34.879z M106.026,12.067c3.061-3.066,15.819-1.725,38.544,12.796l-25.774,25.772C106.102,30.768,101.912,16.181,106.026,12.067z M124.877,59.638l34.537-34.534c1.865-1.854,4.854-1.844,6.698,0l10.29,10.293l-3.216,3.217c-2.083,2.083-2.083,5.458,0,7.542 l36.668,36.661c1,1,2.354,1.562,3.771,1.562s2.771-0.562,3.771-1.562l3.21-3.211l10.291,10.294 c0.896,0.891,1.396,2.078,1.396,3.344c0,1.266-0.5,2.453-1.396,3.349l-34.53,34.523c-11.737-8.37-24.839-19.31-38.504-32.971 C144.197,84.48,133.251,71.377,124.877,59.638z M243.938,149.971c-4.102,4.105-18.69-0.08-38.567-12.776l25.777-25.768 C245.666,134.15,246.999,146.91,243.938,149.971z" class="st0"/><rect width="10.666" height="63.581" x="167.821" y="51.056" class="st0" transform="matrix(0.7071 -0.7071 0.7071 0.7071 -7.8643 146.7092)"/><rect width="10.666" height="63.585" x="57.212" y="161.654" class="st0" transform="matrix(0.7071 -0.7071 0.7071 0.7071 -118.4661 100.8801)"/></g></svg>