<?xml version="1.0" encoding="utf-8"?>
<!-- Generator: Adobe Illustrator 24.1.1, SVG Export Plug-In . SVG Version: 6.00 Build 0)  -->
<svg version="1.1" id="Layer_1" xmlns="http://www.w3.org/2000/svg" xmlns:xlink="http://www.w3.org/1999/xlink" x="0px" y="0px"
	 viewBox="0 0 24 24" style="enable-background:new 0 0 24 24;" xml:space="preserve">
<style type="text/css">
	.st0{fill:none;stroke:#858686;stroke-linejoin:round;stroke-miterlimit:10;}
	.st1{fill:none;stroke:#858686;stroke-linejoin:round;}
	.st2{fill:none;stroke:#858686;stroke-linejoin:round;stroke-dasharray:3.589,1.1963;}
</style>
<g>
	<path class="st0" d="M15.29,18.352c0.879,1.588,1.153,2.841,0.612,3.382c-0.541,0.541-1.794,0.267-3.382-0.612
		s-3.512-2.365-5.395-4.247c-1.883-1.883-3.368-3.806-4.247-5.395S1.726,8.639,2.266,8.098S4.06,7.83,5.648,8.71"/>
	<g>
		<g>
			<path class="st1" d="M5.648,8.71c0.404,0.224,0.831,0.487,1.273,0.786"/>
			<path class="st2" d="M7.892,10.193c1.019,0.771,2.091,1.704,3.151,2.764c1.226,1.226,2.284,2.47,3.115,3.627"/>
			<path class="st1" d="M14.504,17.079c0.299,0.442,0.562,0.868,0.786,1.273"/>
		</g>
	</g>
	<path class="st0" d="M21.753,9.655c1.525,2.223,2.158,4.069,1.469,4.758c-1.082,1.082-5.011-1.094-8.776-4.859
		S8.505,1.859,9.587,0.778c0.689-0.689,2.535-0.056,4.758,1.469"/>
	<g>
		<path class="st0" d="M11.144,5.447L14.591,2c0.369-0.369,0.966-0.369,1.335,0l1.319,1.319"/>
		<path class="st0" d="M20.682,6.755L22,8.074c0.369,0.369,0.369,0.966,0,1.335l-3.447,3.447"/>
		<path class="st0" d="M20.45,5.013c0.274-0.41,0.23-0.969-0.132-1.331c-0.362-0.362-0.921-0.406-1.331-0.132L18,2.563l-1.41,1.41
			l3.437,3.437L21.437,6L20.45,5.013z"/>
		<line class="st0" x1="14.126" y1="5.659" x2="18.341" y2="9.874"/>
	</g>
	<g>
		<path class="st0" d="M11.066,20.343l-2.88,2.88c-0.369,0.369-0.966,0.369-1.335,0L0.776,17.15c-0.369-0.369-0.369-0.966,0-1.335
			l2.88-2.88"/>
		<line class="st0" x1="3.757" y1="16.028" x2="7.972" y2="20.243"/>
	</g>
</g>
</svg>
