<svg xmlns="http://www.w3.org/2000/svg" xmlns:xlink="http://www.w3.org/1999/xlink" id="Layer_1" x="0" y="0" version="1.1" viewBox="0 0 16 16" style="enable-background:new 0 0 16 16" xml:space="preserve"><style type="text/css">.st0{fill:#858686}</style><g><path d="M9.464,10.529C8.998,9.915,8.465,9.295,7.877,8.688L7.398,9.151c0.568,0.589,1.085,1.188,1.535,1.782 L9.464,10.529z" class="st0"/><path d="M7.305,8.116C6.698,7.529,6.078,6.995,5.462,6.53L5.06,7.061c0.594,0.45,1.193,0.966,1.781,1.534L7.305,8.116z" class="st0"/><path d="M9.945,11.199l-0.552,0.374c0.194,0.287,0.365,0.564,0.508,0.823c0.572,1.032,0.645,1.676,0.464,1.857 c-0.18,0.182-0.826,0.107-1.858-0.464c-1.079-0.597-2.33-1.583-3.522-2.776C3.792,9.82,2.807,8.57,2.21,7.492 C1.639,6.46,1.565,5.815,1.746,5.634c0.182-0.18,0.826-0.107,1.858,0.464c0.264,0.146,0.54,0.317,0.823,0.509L4.8,6.055 c-0.298-0.202-0.592-0.384-0.874-0.54c-1.266-0.7-2.182-0.822-2.652-0.352c-0.47,0.47-0.348,1.387,0.352,2.652 c0.127,0.229,0.28,0.469,0.438,0.709l-1.784,1.784c-0.375,0.375-0.375,0.985,0,1.361l4.05,4.049C4.513,15.9,4.754,16,5.011,16 c0.257,0,0.499-0.1,0.681-0.282l1.783-1.784c0.241,0.158,0.481,0.312,0.71,0.438c0.76,0.421,1.395,0.633,1.882,0.633 c0.324,0,0.582-0.093,0.77-0.281c0.47-0.47,0.348-1.387-0.352-2.652C10.332,11.797,10.151,11.503,9.945,11.199z M5.221,15.246 c-0.112,0.111-0.306,0.113-0.419,0l-4.05-4.049c-0.115-0.115-0.115-0.303,0-0.418l1.7-1.7c0.571,0.788,1.265,1.609,2.062,2.406 c0.797,0.796,1.617,1.49,2.406,2.062L5.221,15.246z" class="st0"/><path d="M14.927,6.472c0.162-0.178,0.258-0.402,0.258-0.644c0-0.257-0.101-0.499-0.283-0.681l-0.643-0.643l0.268-0.268 C14.59,4.173,14.625,4.088,14.625,4c0-0.089-0.035-0.173-0.098-0.236l-0.493-0.493c0.117-0.363,0.027-0.773-0.253-1.053 c-0.279-0.28-0.688-0.37-1.053-0.253l-0.493-0.493c-0.125-0.125-0.346-0.125-0.471,0l-0.268,0.268l-0.643-0.644 C10.488,0.734,9.905,0.73,9.528,1.074c-1.03-0.677-2.64-1.524-3.373-0.791c-1.012,1.012,0.864,3.947,3.24,6.322 c1.925,1.924,4.215,3.52,5.554,3.52c0.314,0,0.576-0.088,0.769-0.281C16.45,9.112,15.604,7.502,14.927,6.472z M12,2.18l0.423,0.423 c0.113,0.113,0.289,0.129,0.421,0.041c0.145-0.098,0.342-0.078,0.466,0.047c0.124,0.124,0.144,0.32,0.046,0.466 c-0.088,0.132-0.071,0.309,0.042,0.421L13.82,4l-0.469,0.469l-1.82-1.82L12,2.18z M6.627,0.754c0.191-0.192,0.989-0.108,2.409,0.8 L7.425,3.165C6.631,1.923,6.37,1.011,6.627,0.754z M7.805,3.727l2.159-2.158c0.117-0.116,0.303-0.115,0.419,0l0.643,0.643 l-0.201,0.201c-0.13,0.13-0.13,0.341,0,0.471l2.292,2.291c0.063,0.062,0.147,0.098,0.236,0.098s0.173-0.035,0.236-0.098 l0.201-0.201l0.643,0.643c0.056,0.056,0.087,0.13,0.087,0.209c0,0.079-0.031,0.153-0.087,0.209l-2.158,2.158 c-0.734-0.523-1.552-1.207-2.407-2.061C9.012,5.28,8.328,4.461,7.805,3.727z M15.246,9.373c-0.256,0.257-1.168-0.005-2.41-0.799 l1.611-1.611C15.354,8.384,15.437,9.182,15.246,9.373z" class="st0"/><rect width=".667" height="3.974" x="10.489" y="3.191" class="st0" transform="matrix(0.7071 -0.7071 0.7071 0.7071 -0.4915 9.1693)"/><rect width=".667" height="3.974" x="3.576" y="10.103" class="st0" transform="matrix(0.7071 -0.7071 0.7071 0.7071 -7.4041 6.305)"/></g></svg>