<svg xmlns="http://www.w3.org/2000/svg" xmlns:xlink="http://www.w3.org/1999/xlink" id="Layer_1" x="0" y="0" version="1.1" viewBox="0 0 24 24" style="enable-background:new 0 0 24 24" xml:space="preserve"><style type="text/css">.st0{fill:#858686}</style><g><path d="M14.196,15.794c-0.699-0.922-1.499-1.851-2.38-2.762l-0.719,0.694c0.853,0.883,1.627,1.782,2.302,2.672 L14.196,15.794z" class="st0"/><path d="M10.958,12.174c-0.911-0.881-1.841-1.681-2.764-2.379L7.59,10.592c0.891,0.674,1.79,1.449,2.672,2.301 L10.958,12.174z" class="st0"/><path d="M14.918,16.799l-0.828,0.561c0.291,0.431,0.548,0.846,0.763,1.234c0.857,1.548,0.968,2.515,0.696,2.786 c-0.271,0.272-1.239,0.161-2.786-0.696c-1.618-0.896-3.494-2.374-5.283-4.163c-1.79-1.79-3.269-3.666-4.163-5.283 C2.458,9.69,2.348,8.723,2.619,8.451c0.272-0.271,1.239-0.161,2.786,0.696C5.801,9.367,6.216,9.623,6.64,9.91l0.561-0.828 C6.753,8.779,6.312,8.506,5.89,8.272c-1.899-1.05-3.273-1.233-3.978-0.528C1.207,8.45,1.39,9.825,2.441,11.722 c0.19,0.343,0.42,0.703,0.657,1.064l-2.676,2.675c-0.563,0.562-0.563,1.478,0,2.041l6.074,6.074C6.769,23.85,7.131,24,7.517,24 s0.748-0.15,1.022-0.423l2.675-2.675c0.361,0.237,0.721,0.467,1.064,0.657c1.141,0.631,2.092,0.949,2.823,0.949 c0.485,0,0.873-0.14,1.154-0.421c0.705-0.705,0.522-2.081-0.528-3.977C15.499,17.696,15.226,17.255,14.918,16.799z M7.831,22.87 c-0.168,0.167-0.459,0.169-0.628,0l-6.074-6.074c-0.173-0.173-0.173-0.455,0-0.627l2.55-2.55c0.857,1.183,1.898,2.414,3.093,3.609 c1.195,1.194,2.426,2.236,3.609,3.093L7.831,22.87z" class="st0"/><path d="M22.39,9.708c0.243-0.267,0.387-0.603,0.387-0.966c0-0.386-0.151-0.749-0.424-1.021l-0.965-0.965l0.402-0.402 C21.885,6.26,21.937,6.132,21.937,6c0-0.133-0.053-0.26-0.146-0.354l-0.739-0.739c0.176-0.544,0.041-1.16-0.38-1.58 c-0.419-0.419-1.032-0.556-1.579-0.379l-0.739-0.739c-0.188-0.187-0.52-0.187-0.707,0l-0.402,0.402L16.28,1.646 C15.732,1.1,14.858,1.095,14.292,1.61c-1.545-1.015-3.96-2.286-5.06-1.186c-1.519,1.518,1.296,5.92,4.86,9.484 c2.887,2.886,6.323,5.28,8.33,5.28c0.472,0,0.864-0.132,1.153-0.421C24.675,13.668,23.406,11.253,22.39,9.708z M18,3.27 l0.634,0.634c0.169,0.169,0.434,0.194,0.632,0.062c0.218-0.147,0.514-0.117,0.699,0.07c0.187,0.187,0.216,0.48,0.069,0.7 c-0.132,0.198-0.106,0.463,0.063,0.631L20.73,6l-0.703,0.704l-2.731-2.73L18,3.27z M9.94,1.131c0.287-0.287,1.483-0.162,3.614,1.2 l-2.416,2.416C9.947,2.885,9.554,1.517,9.94,1.131z M11.707,5.591l3.238-3.238c0.175-0.174,0.455-0.173,0.628,0l0.965,0.965 L16.236,3.62c-0.195,0.195-0.195,0.512,0,0.707l3.438,3.437c0.094,0.094,0.221,0.146,0.354,0.146s0.26-0.053,0.354-0.146 l0.301-0.301l0.965,0.965c0.084,0.083,0.131,0.195,0.131,0.313c0,0.119-0.047,0.23-0.131,0.314l-3.237,3.237 c-1.1-0.785-2.329-1.81-3.61-3.091C13.518,7.92,12.492,6.692,11.707,5.591z M22.869,14.06c-0.385,0.385-1.752-0.008-3.616-1.198 l2.417-2.416C23.031,12.577,23.156,13.773,22.869,14.06z" class="st0"/><rect width="1" height="5.961" x="15.733" y="4.787" class="st0" transform="matrix(0.7071 -0.7071 0.7071 0.7071 -0.7373 13.754)"/><rect width="1" height="5.961" x="5.364" y="15.155" class="st0" transform="matrix(0.7071 -0.7071 0.7071 0.7071 -11.1062 9.4575)"/></g></svg>